<?xml version="1.0" encoding="UTF-8" standalone="no"?>
<svg width="80px" height="80px" viewBox="0 0 80 80" version="1.1" xmlns="http://www.w3.org/2000/svg" xmlns:xlink="http://www.w3.org/1999/xlink">
    <!-- Generator: Sketch 3.8.3 (29802) - http://www.bohemiancoding.com/sketch -->
    <title>fixed</title>
    <desc>Created with Sketch.</desc>
    <defs></defs>
    <g id="Page-1" stroke="none" stroke-width="1" fill="none" fill-rule="evenodd">
        <g id="fixed">
            <g id="Fixed-Copy" transform="translate(12.000000, 6.000000)">
                <g id="table" transform="translate(0.000000, 33.428946)">
                    <path d="M0,1.38517732 C0,0.620165012 0.62890625,0 1.38427734,0 L54.6157227,0 C55.3802379,0 56,0.614831486 56,1.38517732 L56,1.38517732 C56,2.15018963 55.3710938,2.77035465 54.6157227,2.77035465 L1.38427734,2.77035465 C0.619762077,2.77035465 0,2.15552316 0,1.38517732 L0,1.38517732 Z" id="Rectangle-94-Copy-3" fill="#D8D8D8"></path>
                    <rect id="Rectangle-94-Copy-4" fill="#D8D8D8" transform="translate(3.266667, 17.822615) rotate(-270.000000) translate(-3.266667, -17.822615) " x="-12.88" y="16.4374376" width="32.2933333" height="2.77035465" rx="1.38517732"></rect>
                    <rect id="Rectangle-94-Copy-5" fill="#D8D8D8" transform="translate(52.733333, 17.822615) rotate(-270.000000) translate(-52.733333, -17.822615) " x="36.5866667" y="16.4374376" width="32.2933333" height="2.77035465" rx="1.38517732"></rect>
                    <rect id="Rectangle-100" fill="#004B6F" x="36.2133333" y="4.24787712" width="13.6266667" height="29.5504496" rx="1"></rect>
                </g>
                <g id="human" transform="translate(11.386667, 0.000000)" fill="#D8D8D8">
                    <rect id="Rectangle-100-Copy" x="2.24" y="37.6768232" width="4.10666667" height="29.5504496" rx="2.05333333"></rect>
                    <rect id="Rectangle-100-Copy-2" x="11.9466667" y="37.6768232" width="4.10666667" height="29.5504496" rx="2.05333333"></rect>
                    <ellipse id="Oval-3" cx="10.64" cy="7.01823177" rx="7.09333333" ry="7.01823177"></ellipse>
                    <path d="M0,22.9939436 C0,17.2308508 4.68129433,12.5589411 10.4385238,12.5589411 L10.6548095,12.5589411 C16.419847,12.5589411 21.0933333,17.2295837 21.0933333,22.9939436 L21.0933333,33.4289461 L0,33.4289461 L0,22.9939436 Z" id="Rectangle-103"></path>
                </g>
                <rect id="Rectangle-104-Copy-3" fill="#004B6F" x="45.7333333" y="21.7934565" width="8.4" height="11.6282938" rx="1"></rect>
                <g id="screen" transform="translate(15.866667, 14.221154)" fill="#004B6F">
                    <rect id="Rectangle-104" x="5.04" y="17.3608891" width="14.3733333" height="1.8469031" rx="0.923451548"></rect>
                    <rect id="Rectangle-104-Copy-2" x="0" y="1.59872116e-14" width="24.36" height="11.6282938" rx="1"></rect>
                    <rect id="Rectangle-104-Copy" transform="translate(12.226667, 14.775225) rotate(-270.000000) translate(-12.226667, -14.775225) " x="8.96" y="13.8517732" width="6.53333333" height="1.8469031"></rect>
                </g>
            </g>
        </g>
    </g>
</svg>