<svg width="80" height="80" viewBox="0 0 80 80" xmlns="http://www.w3.org/2000/svg"><title>fixed</title><g transform="translate(12 6)" fill="none" fill-rule="evenodd"><g transform="translate(0 33.429)"><path d="M0 1.385A1.39 1.39 0 0 1 1.384 0h53.232C55.38 0 56 .615 56 1.385a1.39 1.39 0 0 1-1.384 1.385H1.384A1.381 1.381 0 0 1 0 1.385z" fill="#D8D8D8"/><rect fill="#D8D8D8" transform="rotate(90 3.267 17.823)" x="-12.88" y="16.437" width="32.293" height="2.77" rx="1.385"/><rect fill="#D8D8D8" transform="rotate(90 52.733 17.823)" x="36.587" y="16.437" width="32.293" height="2.77" rx="1.385"/><rect fill="#004B6F" x="36.213" y="4.248" width="13.627" height="29.55" rx="1"/></g><g transform="translate(11.387)" fill="#D8D8D8"><rect x="2.24" y="37.677" width="4.107" height="29.55" rx="2.053"/><rect x="11.947" y="37.677" width="4.107" height="29.55" rx="2.053"/><ellipse cx="10.64" cy="7.018" rx="7.093" ry="7.018"/><path d="M0 22.994c0-5.763 4.681-10.435 10.439-10.435h.216c5.765 0 10.438 4.67 10.438 10.435v10.435H0V22.994z"/></g><rect fill="#004B6F" x="45.733" y="21.793" width="8.4" height="11.628" rx="1"/><g transform="translate(15.867 14.221)" fill="#004B6F"><rect x="5.04" y="17.361" width="14.373" height="1.847" rx=".923"/><rect width="24.36" height="11.628" rx="1"/><path d="M13.15 11.509v6.533h-1.847v-6.533z"/></g></g></svg>