<svg width="80" height="80" viewBox="0 0 80 80" xmlns="http://www.w3.org/2000/svg"><title>flex</title><g fill="none" fill-rule="evenodd"><g transform="translate(12 39.813)" fill="#D8D8D8"><path d="M0 1.401C0 .627.629 0 1.398 0h53.204a1.402 1.402 0 0 1 0 2.802H1.398A1.396 1.396 0 0 1 0 1.402z"/><rect transform="rotate(90 3.267 18.027)" x="-12.88" y="16.626" width="32.293" height="2.802" rx="1.401"/><rect transform="rotate(90 52.733 18.027)" x="36.587" y="16.626" width="32.293" height="2.802" rx="1.401"/></g><g transform="translate(29.547 6)" fill="#D8D8D8"><rect x="2.24" y="38.11" width="4.107" height="29.89" rx="2.053"/><rect x="11.947" y="38.11" width="4.107" height="29.89" rx="2.053"/><ellipse cx="10.64" cy="7.099" rx="7.093" ry="7.099"/><path d="M0 23.258c0-5.83 4.72-10.555 10.547-10.555 5.824 0 10.546 4.725 10.546 10.555v10.555H0V23.258z"/></g><g transform="translate(27.867 28.604)" fill="#004B6F"><rect x="1.68" width="21.093" height="10.641" rx="1"/><rect y="10.462" width="24.36" height=".747" rx=".374"/></g></g></svg>